<?xml version="1.0" standalone="no"?>
<!DOCTYPE svg PUBLIC "-//W3C//DTD SVG 20010904//EN"
 "http://www.w3.org/TR/2001/REC-SVG-20010904/DTD/svg10.dtd">
<svg version="1.0" xmlns="http://www.w3.org/2000/svg"
 width="467.000000pt" height="534.000000pt" viewBox="0 0 467.000000 534.000000"
 preserveAspectRatio="xMidYMid meet">

<g transform="translate(0.000000,534.000000) scale(0.100000,-0.100000)"
fill="#000000" stroke="none">
<path d="M2129 4556 c-2 -3 -27 -7 -54 -11 -113 -13 -167 -89 -200 -278 -8
-47 -60 -107 -118 -137 -99 -52 -150 -108 -209 -232 -18 -40 -23 -58 -15 -62
8 -3 4 -11 -10 -22 -14 -10 -23 -27 -23 -43 0 -14 -5 -42 -10 -61 -25 -82 -4
-267 45 -408 14 -40 25 -83 25 -97 0 -14 17 -55 38 -90 30 -52 42 -64 62 -64
32 0 60 21 60 46 0 10 4 23 9 28 5 6 12 59 16 119 7 109 13 133 95 346 29 77
77 173 104 209 20 27 124 101 141 101 3 0 26 13 52 29 54 33 95 35 136 8 14
-9 45 -17 69 -17 56 0 195 -43 242 -75 20 -14 40 -25 43 -25 18 0 102 -105
135 -169 21 -41 38 -77 38 -81 0 -4 18 -40 40 -80 22 -40 40 -74 40 -75 0 -1
-30 1 -67 4 -38 3 -112 5 -167 4 -89 -2 -102 -5 -132 -28 -47 -36 -68 -88 -53
-132 7 -22 17 -33 30 -33 10 0 19 -4 19 -10 0 -15 28 -12 56 6 23 16 26 16 37
0 18 -24 235 -46 248 -25 13 21 11 39 -6 39 -8 0 -15 4 -15 8 0 5 -18 16 -40
25 -46 18 -48 15 -19 -14 29 -29 17 -34 -33 -14 -24 9 -72 17 -110 18 -37 1
-64 5 -62 9 21 34 204 83 218 59 3 -5 21 -9 39 -8 41 1 115 -55 123 -92 2 -14
9 -46 14 -71 5 -25 12 -63 16 -85 5 -34 9 -40 30 -40 13 0 24 5 24 11 0 15 46
98 86 154 63 89 101 196 110 305 6 67 4 75 -41 180 -135 316 -334 644 -439
724 -109 82 -209 114 -421 136 -149 15 -189 18 -196 11z m121 -106 c0 -5 -4
-10 -10 -10 -5 0 -10 5 -10 10 0 6 5 10 10 10 6 0 10 -4 10 -10z m-40 -19 c0
-6 -4 -13 -10 -16 -5 -3 -10 1 -10 9 0 9 5 16 10 16 6 0 10 -4 10 -9z m-94
-48 c-7 -17 -8 -17 -17 0 -12 21 -2 44 13 29 6 -6 8 -19 4 -29z m369 27 c-3
-5 -11 -10 -16 -10 -6 0 -7 5 -4 10 3 6 11 10 16 10 6 0 7 -4 4 -10z m86 -94
c11 -1 18 -5 17 -11 -3 -9 -68 -8 -78 2 -7 7 23 22 33 16 6 -3 18 -6 28 -7z
m-674 -63 c-3 -10 -5 -4 -5 12 0 17 2 24 5 18 2 -7 2 -21 0 -30z m689 17 l27
-11 -22 -20 c-27 -25 -66 -22 -66 6 0 34 18 41 61 25z m-76 -40 c0 -5 -9 -10
-20 -10 -13 0 -20 -7 -20 -20 0 -27 -25 -25 -52 3 l-23 22 45 6 c25 3 51 7 58
7 6 1 12 -2 12 -8z m-540 -10 c0 -5 -4 -10 -10 -10 -5 0 -10 5 -10 10 0 6 5
10 10 10 6 0 10 -4 10 -10z m-47 -36 c-3 -8 -11 -13 -17 -11 -6 3 -11 -8 -12
-25 -1 -36 -10 -45 -32 -32 -24 15 -21 27 13 68 21 25 32 32 41 25 7 -6 10
-17 7 -25z m-93 -60 c0 -2 -7 -4 -15 -4 -8 0 -15 4 -15 10 0 5 7 7 15 4 8 -4
15 -8 15 -10z m110 -189 c0 -29 -6 -31 -26 -10 -17 16 -11 35 12 35 8 0 14
-10 14 -25z m16 -62 c-10 -10 -19 5 -10 18 6 11 8 11 12 0 2 -7 1 -15 -2 -18z"/>
<path d="M1942 3419 c-44 -11 -53 -31 -16 -37 10 -2 28 -7 39 -12 11 -5 44
-11 73 -14 64 -6 77 -13 62 -31 -9 -11 -4 -18 22 -32 l33 -18 -70 -6 c-38 -3
-83 -11 -98 -18 -38 -15 -45 -14 -49 6 -3 16 -6 15 -26 -5 -45 -45 -32 -51 86
-45 65 3 112 10 120 18 11 10 20 10 43 -2 37 -18 57 -8 34 18 -17 17 -16 18
17 12 l35 -5 6 47 c8 56 -7 94 -43 112 -35 16 -215 24 -268 12z"/>
<path d="M1627 3004 c-12 -13 -8 -66 5 -62 24 8 34 37 17 53 -8 9 -18 12 -22
9z"/>
<path d="M3055 2980 c-10 -11 -16 -21 -14 -23 71 -42 99 -32 69 24 -14 24 -32
24 -55 -1z"/>
<path d="M2421 2901 c-17 -30 -60 -36 -92 -12 -32 24 -54 26 -88 7 -24 -13
-24 -14 -4 -24 11 -6 29 -9 41 -6 12 4 38 -4 64 -20 47 -28 90 -29 143 -5 55
25 57 41 11 63 -44 21 -63 20 -75 -3z"/>
<path d="M2955 2876 c-21 -28 -25 -43 -23 -85 2 -28 7 -50 12 -48 11 4 36 118
29 130 -3 4 1 14 7 22 7 8 10 15 7 15 -3 0 -18 -15 -32 -34z"/>
<path d="M2370 2709 c-19 -6 -42 -13 -50 -16 -8 -4 -68 -5 -132 -4 -79 2 -118
0 -118 -8 0 -24 47 -29 284 -29 208 0 253 2 273 15 12 8 23 19 23 23 0 4 -30
8 -68 8 -37 1 -88 6 -112 11 -52 12 -54 12 -100 0z"/>
<path d="M2931 2704 c0 -11 3 -14 6 -6 3 7 2 16 -1 19 -3 4 -6 -2 -5 -13z"/>
<path d="M2920 2604 c0 -8 5 -12 10 -9 6 4 8 11 5 16 -9 14 -15 11 -15 -7z"/>
<path d="M1700 2560 c0 -5 5 -10 11 -10 5 0 7 5 4 10 -3 6 -8 10 -11 10 -2 0
-4 -4 -4 -10z"/>
<path d="M2373 2553 c-40 -3 -55 -9 -64 -24 -8 -16 -6 -23 13 -39 33 -28 61
-25 86 10 12 16 22 34 22 39 0 5 8 12 18 14 20 5 7 5 -75 0z"/>
<path d="M2855 2499 c-4 -11 -4 -23 0 -27 7 -7 25 17 25 36 0 20 -18 14 -25
-9z"/>
<path d="M2796 2326 c-28 -48 -63 -66 -127 -66 -28 0 -39 -4 -39 -15 0 -8 -7
-15 -15 -15 -8 0 -15 9 -15 20 0 19 5 21 50 24 8 1 16 12 18 24 3 19 0 23 -15
20 -10 -2 -17 -10 -15 -16 3 -15 -14 -16 -23 -2 -5 8 -11 8 -20 0 -8 -7 -77
-13 -172 -16 -261 -8 -276 -9 -281 -22 -2 -7 -13 -12 -25 -12 -12 0 -28 -4
-36 -9 -9 -6 -38 1 -82 20 -62 25 -69 26 -69 10 0 -10 9 -26 21 -37 11 -10 39
-47 61 -81 l40 -62 62 3 c73 5 123 -15 176 -69 23 -23 42 -35 56 -33 12 2 32
-6 44 -17 31 -28 88 -21 120 15 15 16 41 30 63 34 21 4 54 18 74 32 20 13 42
24 50 24 8 0 11 5 7 11 -10 16 18 30 33 17 11 -8 16 -4 26 21 6 17 16 30 22
27 11 -4 51 202 41 211 -2 2 -15 -16 -30 -41z"/>
<path d="M2772 1938 c-6 -23 -9 -45 -7 -48 9 -15 -17 -216 -32 -244 -29 -56
-30 -61 -25 -94 5 -39 23 -37 36 4 10 34 24 72 61 169 37 95 43 179 16 223
-11 17 -25 32 -30 32 -5 0 -13 -19 -19 -42z"/>
<path d="M1827 1930 c-12 -19 -15 -39 -10 -82 3 -32 9 -55 14 -53 9 6 23 128
17 147 -3 8 -10 4 -21 -12z"/>
<path d="M2722 1465 c-20 -43 -12 -95 13 -95 26 0 31 25 15 73 -16 47 -17 47
-28 22z"/>
<path d="M2044 1350 c3 -30 6 -65 6 -77 0 -18 6 -23 26 -23 25 0 25 2 19 42
-4 24 -19 59 -32 78 l-25 35 6 -55z"/>
<path d="M2870 324 c0 -27 4 -35 16 -32 8 2 15 6 15 11 -1 4 -1 18 -1 32 0 16
-6 25 -15 25 -11 0 -15 -11 -15 -36z"/>
</g>
</svg>
