<svg data-name="Layer 1" xmlns="http://www.w3.org/2000/svg" width="795.39" height="574.04">
  <defs>
    <linearGradient id="a" x1="-450.79" y1="2803.05" x2="-450.79" y2="2729.35" gradientTransform="rotate(90 1103.94 2113.6)" gradientUnits="userSpaceOnUse">
      <stop offset="0" stop-color="gray" stop-opacity=".25"/>
      <stop offset=".54" stop-color="gray" stop-opacity=".12"/>
      <stop offset="1" stop-color="gray" stop-opacity=".1"/>
    </linearGradient>
  </defs>
  <ellipse cx="232.06" cy="450.07" rx="35.09" ry="5.26" transform="rotate(-63.61 -.5 531.68)" fill="#e0e0e0"/>
  <ellipse cx="670.58" cy="667.86" rx="35.09" ry="3.58" transform="rotate(-63.61 438.02 749.47)" fill="#e0e0e0"/>
  <path fill="#f55f44" d="m220.4 405.29 16.24 13.4-44.7 54.13-16.23-13.41z"/>
  <path opacity=".05" d="m222.36 482.55-23.06-5.42 16.07-68.33 23.06 5.42z"/>
  <path fill="#f55f44" d="m222.36 482.55-20.5-4.82 16.07-68.33 20.5 4.82z"/>
  <path transform="rotate(-63.61 218.78 640.48)" fill="url(#a)" d="M414.49 314.08h73.7v489.57h-73.7z"/>
  <path d="M452.71 536.12c-8.58-4.11-444.84-220.71-438.55-217.6 24.21-36.95 31.2-62.87 31.2-62.87l438.55 217.6s-15.4 27.03-31.2 62.87Z" fill="#f5f5f5"/>
  <path opacity=".05" d="m237.13 350.8 36.15 17.94-31.2 62.87-36.15-17.93z"/>
  <path fill="#f55f44" d="m238.7 351.58 33 16.38-31.19 62.87-33.01-16.38z"/>
  <path opacity=".05" d="m243.42 353.92 22 10.92-31.2 62.88-22-10.93z"/>
  <path fill="#f55f44" d="m244.98 354.7 18.87 9.36-31.2 62.87-18.86-9.36z"/>
  <circle cx="261.31" cy="563.92" r="2.93" fill="#dbdbdb"/>
  <g opacity=".5" fill="#47e6b1">
    <path d="M29.39 482h3v17h-3z"/>
    <path d="M39.4 489v3h-17v-3z"/>
  </g>
  <g opacity=".5" fill="#47e6b1">
    <path d="M785.39 270h3v17h-3z"/>
    <path d="M795.4 277v3h-17v-3z"/>
  </g>
  <g opacity=".5" fill="#47e6b1">
    <path d="M47.39 59h3v17h-3z"/>
    <path d="M57.4 66v3h-17v-3z"/>
  </g>
  <g opacity=".5" fill="#47e6b1">
    <path d="M695.39 33h3v17h-3z"/>
    <path d="M705.4 40v3h-17v-3z"/>
  </g>
  <path d="M12.29 253.46a3.67 3.67 0 0 1-2.05-4.44 1.77 1.77 0 0 0 .08-.41 1.84 1.84 0 0 0-3.3-1.22 1.77 1.77 0 0 0-.21.36 3.67 3.67 0 0 1-4.44 2.05 1.77 1.77 0 0 0-.41-.08 1.84 1.84 0 0 0-1.22 3.3 1.77 1.77 0 0 0 .36.21 3.67 3.67 0 0 1 2.05 4.44 1.77 1.77 0 0 0-.08.4 1.84 1.84 0 0 0 3.3 1.23 1.77 1.77 0 0 0 .21-.36 3.67 3.67 0 0 1 4.44-2.05 1.77 1.77 0 0 0 .41.08 1.84 1.84 0 0 0 1.22-3.31 1.77 1.77 0 0 0-.36-.2ZM184.29 56.46a3.67 3.67 0 0 1-2.05-4.44 1.77 1.77 0 0 0 .08-.41 1.84 1.84 0 0 0-3.3-1.22 1.77 1.77 0 0 0-.21.36 3.67 3.67 0 0 1-4.44 2.05 1.77 1.77 0 0 0-.41-.08 1.84 1.84 0 0 0-1.22 3.3 1.77 1.77 0 0 0 .36.21 3.67 3.67 0 0 1 2.05 4.44 1.77 1.77 0 0 0-.08.4 1.84 1.84 0 0 0 3.3 1.23 1.77 1.77 0 0 0 .21-.36 3.67 3.67 0 0 1 4.44-2.05 1.77 1.77 0 0 0 .41.08 1.84 1.84 0 0 0 1.22-3.31 1.77 1.77 0 0 0-.36-.2ZM394.29 567.46a3.67 3.67 0 0 1-2.05-4.44 1.77 1.77 0 0 0 .08-.41 1.84 1.84 0 0 0-3.3-1.22 1.77 1.77 0 0 0-.21.36 3.67 3.67 0 0 1-4.44 2.05 1.77 1.77 0 0 0-.41-.08 1.84 1.84 0 0 0-1.22 3.3 1.77 1.77 0 0 0 .36.21 3.67 3.67 0 0 1 2.05 4.44 1.77 1.77 0 0 0-.08.4 1.84 1.84 0 0 0 3.3 1.23 1.77 1.77 0 0 0 .21-.36 3.67 3.67 0 0 1 4.44-2.05 1.77 1.77 0 0 0 .41.08 1.84 1.84 0 0 0 1.22-3.31 1.77 1.77 0 0 0-.36-.2Z" fill="#4d8af0" opacity=".5"/>
  <circle cx="759.39" cy="444" r="6" fill="#f55f44" opacity=".5"/>
  <circle cx="627.39" cy="482" r="6" fill="#4d8af0" opacity=".5"/>
  <circle cx="103.39" cy="541" r="6" fill="#47e6b1" opacity=".5"/>
  <circle cx="411.39" cy="6" r="6" fill="#f55f44" opacity=".5"/>
  <path d="m204.9 357.5-24 36s8 37 185 36 191-36 191-36l-33-48-101-69Z" fill="#0E6BA8"/>
  <path d="m204.9 357.5-24 36s8 37 185 36 191-36 191-36l-33-48-101-69Z" opacity=".15"/>
  <path fill="#0E6BA8" d="m715.39 224-315 139-384-139 352-160 172.79 79.67 6.19 2.86L715.39 224z"/>
  <path opacity=".15" d="m715.39 224-315 139-384-139 352-160 172.79 79.67 6.19 2.86L715.39 224z"/>
  <path fill="#f5f5f5" d="m553.89 257.32-6 .36-6.71-114.01 6.19 2.86 6.52 110.79z"/>
  <path d="m208.9 223.5-28 170s201-65 376 0l-26-180s-235-29-322 10Z" fill="#0E6BA8"/>
  <ellipse cx="553.39" cy="272" rx="29" ry="20" fill="#f5f5f5"/>
</svg>
